<svg width="32" height="32" viewBox="0 0 32 32" fill="none" xmlns="http://www.w3.org/2000/svg">
  <!-- Background -->
  <rect width="32" height="32" rx="6" fill="#FFFFFF"/>
  
  <!-- Red and white stripes (13 total for historical accuracy) -->
  <rect y="0" width="32" height="2.46" fill="#B22234"/>
  <rect y="2.46" width="32" height="2.46" fill="#FFFFFF"/>
  <rect y="4.92" width="32" height="2.46" fill="#B22234"/>
  <rect y="7.38" width="32" height="2.46" fill="#FFFFFF"/>
  <rect y="9.84" width="32" height="2.46" fill="#B22234"/>
  <rect y="12.3" width="32" height="2.46" fill="#FFFFFF"/>
  <rect y="14.76" width="32" height="2.46" fill="#B22234"/>
  <rect y="17.22" width="32" height="2.46" fill="#FFFFFF"/>
  <rect y="19.68" width="32" height="2.46" fill="#B22234"/>
  <rect y="22.14" width="32" height="2.46" fill="#FFFFFF"/>
  <rect y="24.6" width="32" height="2.46" fill="#B22234"/>
  <rect y="27.06" width="32" height="2.46" fill="#FFFFFF"/>
  <rect y="29.52" width="32" height="2.48" fill="#B22234"/>
  
  <!-- Blue canton (top left) -->
  <rect width="13" height="16" fill="#3C3B6B"/>
  
  <!-- Stars grid (6x9 = 54 stars) -->
  <!-- Row 1 -->
  <circle cx="2" cy="2" r="0.65" fill="#FFFFFF"/>
  <circle cx="5" cy="2" r="0.65" fill="#FFFFFF"/>
  <circle cx="8" cy="2" r="0.65" fill="#FFFFFF"/>
  <circle cx="11" cy="2" r="0.65" fill="#FFFFFF"/>
  <!-- Row 2 -->
  <circle cx="3.5" cy="4" r="0.65" fill="#FFFFFF"/>
  <circle cx="6.5" cy="4" r="0.65" fill="#FFFFFF"/>
  <circle cx="9.5" cy="4" r="0.65" fill="#FFFFFF"/>
  <!-- Row 3 -->
  <circle cx="2" cy="6" r="0.65" fill="#FFFFFF"/>
  <circle cx="5" cy="6" r="0.65" fill="#FFFFFF"/>
  <circle cx="8" cy="6" r="0.65" fill="#FFFFFF"/>
  <circle cx="11" cy="6" r="0.65" fill="#FFFFFF"/>
  <!-- Row 4 -->
  <circle cx="3.5" cy="8" r="0.65" fill="#FFFFFF"/>
  <circle cx="6.5" cy="8" r="0.65" fill="#FFFFFF"/>
  <circle cx="9.5" cy="8" r="0.65" fill="#FFFFFF"/>
  <!-- Row 5 -->
  <circle cx="2" cy="10" r="0.65" fill="#FFFFFF"/>
  <circle cx="5" cy="10" r="0.65" fill="#FFFFFF"/>
  <circle cx="8" cy="10" r="0.65" fill="#FFFFFF"/>
  <circle cx="11" cy="10" r="0.65" fill="#FFFFFF"/>
  <!-- Row 6 -->
  <circle cx="3.5" cy="12" r="0.65" fill="#FFFFFF"/>
  <circle cx="6.5" cy="12" r="0.65" fill="#FFFFFF"/>
  <circle cx="9.5" cy="12" r="0.65" fill="#FFFFFF"/>
  <!-- Row 7 -->
  <circle cx="2" cy="14" r="0.65" fill="#FFFFFF"/>
  <circle cx="5" cy="14" r="0.65" fill="#FFFFFF"/>
  <circle cx="8" cy="14" r="0.65" fill="#FFFFFF"/>
  <circle cx="11" cy="14" r="0.65" fill="#FFFFFF"/>
</svg>