<svg xmlns="http://www.w3.org/2000/svg" viewBox="0 0 1200 800" role="img" aria-label="Data engineering illustration">
  <defs>
    <linearGradient id="bg" x1="0" y1="0" x2="1" y2="1">
      <stop offset="0%" stop-color="#0b1220"/>
      <stop offset="100%" stop-color="#16324a"/>
    </linearGradient>
    <linearGradient id="accent" x1="0" y1="0" x2="1" y2="1">
      <stop offset="0%" stop-color="#7cc4ff"/>
      <stop offset="100%" stop-color="#79ffd4"/>
    </linearGradient>
  </defs>
  <rect width="1200" height="800" rx="36" fill="url(#bg)"/>
  <circle cx="1040" cy="170" r="90" fill="#79ffd4" opacity=".07"/>
  <circle cx="170" cy="650" r="130" fill="#7cc4ff" opacity=".08"/>

  <rect x="120" y="150" width="220" height="120" rx="22" fill="#111827" stroke="#334155"/>
  <rect x="120" y="340" width="220" height="120" rx="22" fill="#111827" stroke="#334155"/>
  <rect x="120" y="530" width="220" height="120" rx="22" fill="#111827" stroke="#334155"/>

  <rect x="490" y="210" width="250" height="160" rx="24" fill="#111827" stroke="#334155"/>
  <rect x="820" y="210" width="250" height="160" rx="24" fill="#111827" stroke="#334155"/>
  <rect x="655" y="500" width="250" height="160" rx="24" fill="#111827" stroke="#334155"/>

  <g stroke="url(#accent)" stroke-width="12" stroke-linecap="round" fill="none">
    <path d="M340 210h90c28 0 50 22 50 50v20c0 28 22 50 50 50h60"/>
    <path d="M340 400h130c28 0 50 22 50 50v10c0 28 22 50 50 50h85"/>
    <path d="M340 590h170c28 0 50-22 50-50v-8c0-28 22-50 50-50h45"/>
    <path d="M740 290h80"/>
    <path d="M905 370v64c0 28-22 50-50 50h-80"/>
  </g>

  <g fill="#0b1220" stroke="#22304e">
    <ellipse cx="615" cy="248" rx="68" ry="22"/>
    <path d="M547 248v52c0 12 30 22 68 22s68-10 68-22v-52"/>
    <ellipse cx="615" cy="300" rx="68" ry="22"/>

    <ellipse cx="945" cy="248" rx="68" ry="22"/>
    <path d="M877 248v52c0 12 30 22 68 22s68-10 68-22v-52"/>
    <ellipse cx="945" cy="300" rx="68" ry="22"/>

    <ellipse cx="780" cy="538" rx="68" ry="22"/>
    <path d="M712 538v52c0 12 30 22 68 22s68-10 68-22v-52"/>
    <ellipse cx="780" cy="590" rx="68" ry="22"/>
  </g>

  <g fill="#79ffd4">
    <circle cx="280" cy="210" r="8"/>
    <circle cx="280" cy="400" r="8"/>
    <circle cx="280" cy="590" r="8"/>
  </g>

  <g stroke="#7cc4ff" stroke-width="8" stroke-linecap="round">
    <path d="M164 200h90"/><path d="M164 390h90"/><path d="M164 580h90"/>
  </g>
  <text x="120" y="730" fill="#f8fbff" font-size="54" font-family="Arial, Helvetica, sans-serif" font-weight="700">Data Engineering</text>
</svg>
