<svg xmlns="http://www.w3.org/2000/svg" viewBox="0 0 1200 800" role="img" aria-label="Custom software illustration">
  <defs>
    <linearGradient id="bg" x1="0" y1="0" x2="1" y2="1">
      <stop offset="0%" stop-color="#111827"/>
      <stop offset="100%" stop-color="#78350f"/>
    </linearGradient>
    <linearGradient id="accent" x1="0" y1="0" x2="1" y2="1">
      <stop offset="0%" stop-color="#fbbf24"/>
      <stop offset="100%" stop-color="#fb7185"/>
    </linearGradient>
  </defs>
  <rect width="1200" height="800" fill="url(#bg)" rx="36"/>
  <rect x="145" y="120" width="910" height="500" rx="28" fill="#0b1220" stroke="#374151"/>
  <rect x="190" y="170" width="250" height="26" rx="13" fill="#1f2937"/>
  <rect x="190" y="230" width="360" height="290" rx="22" fill="#111827" stroke="#374151"/>
  <rect x="585" y="230" width="420" height="110" rx="22" fill="#111827" stroke="#374151"/>
  <rect x="585" y="380" width="420" height="140" rx="22" fill="#111827" stroke="#374151"/>
  <path d="M255 370l70-70 46 46 92-92" fill="none" stroke="url(#accent)" stroke-width="12" stroke-linecap="round" stroke-linejoin="round"/>
  <path d="M690 265h210M690 302h160M655 445h280M655 485h220" stroke="#e5e7eb" stroke-width="12" stroke-linecap="round"/>
  <text x="110" y="710" fill="#f9fafb" font-size="56" font-family="Arial, Helvetica, sans-serif" font-weight="700">Custom Software</text>
  <text x="110" y="756" fill="#fde68a" font-size="28" font-family="Arial, Helvetica, sans-serif">Web, mobile and enterprise applications from concept to production</text>
</svg>
