<svg xmlns="http://www.w3.org/2000/svg" viewBox="0 0 1200 800" role="img" aria-label="Data analytics and BI illustration">
  <defs>
    <linearGradient id="bg" x1="0" y1="0" x2="1" y2="1">
      <stop offset="0%" stop-color="#0b1220"/>
      <stop offset="100%" stop-color="#1e3a5f"/>
    </linearGradient>
    <linearGradient id="accent" x1="0" y1="0" x2="1" y2="1">
      <stop offset="0%" stop-color="#7cc4ff"/>
      <stop offset="100%" stop-color="#79ffd4"/>
    </linearGradient>
    <linearGradient id="accent2" x1="0" y1="0" x2="1" y2="1">
      <stop offset="0%" stop-color="#8a55ff"/>
      <stop offset="100%" stop-color="#35d6ff"/>
    </linearGradient>
  </defs>
  <rect width="1200" height="800" rx="36" fill="url(#bg)"/>
  <circle cx="980" cy="120" r="100" fill="#35d6ff" opacity=".08"/>
  <circle cx="180" cy="640" r="140" fill="#8a55ff" opacity=".08"/>

  <rect x="110" y="120" width="980" height="560" rx="28" fill="#0a0f1a" stroke="#334155"/>
  <rect x="150" y="160" width="300" height="190" rx="22" fill="#111827" stroke="#334155"/>
  <rect x="490" y="160" width="560" height="190" rx="22" fill="#111827" stroke="#334155"/>
  <rect x="150" y="390" width="900" height="250" rx="22" fill="#111827" stroke="#334155"/>

  <rect x="184" y="194" width="120" height="14" rx="7" fill="#35d6ff"/>
  <rect x="184" y="232" width="220" height="84" rx="14" fill="#0b1220"/>
  <path d="M214 290c34-26 62-16 96-44 34-27 58-62 96-58" fill="none" stroke="url(#accent2)" stroke-width="10" stroke-linecap="round"/>
  <circle cx="406" cy="188" r="10" fill="#79ffd4"/>
  <circle cx="310" cy="248" r="10" fill="#35d6ff"/>

  <rect x="528" y="196" width="120" height="14" rx="7" fill="#79ffd4"/>
  <g>
    <rect x="572" y="272" width="58" height="36" rx="10" fill="#1d4ed8"/>
    <rect x="664" y="244" width="58" height="64" rx="10" fill="#2563eb"/>
    <rect x="756" y="214" width="58" height="94" rx="10" fill="#35d6ff"/>
    <rect x="848" y="186" width="58" height="122" rx="10" fill="#79ffd4"/>
    <rect x="940" y="228" width="58" height="80" rx="10" fill="#8a55ff"/>
  </g>
  <path d="M562 328h454" stroke="#334155" stroke-width="4"/>

  <rect x="190" y="438" width="190" height="146" rx="18" fill="#0b1220" stroke="#22304e"/>
  <rect x="412" y="438" width="190" height="146" rx="18" fill="#0b1220" stroke="#22304e"/>
  <rect x="634" y="438" width="190" height="146" rx="18" fill="#0b1220" stroke="#22304e"/>
  <rect x="856" y="438" width="150" height="146" rx="18" fill="#0b1220" stroke="#22304e"/>
  <g stroke="url(#accent)" stroke-width="8" stroke-linecap="round">
    <path d="M240 520h90"/>
    <path d="M460 502h82"/>
    <path d="M460 538h112"/>
    <path d="M682 520h92"/>
    <path d="M892 500h78"/>
  </g>
  <text x="112" y="730" fill="#f8fbff" font-size="54" font-family="Arial, Helvetica, sans-serif" font-weight="700">Data Analytics &amp; BI</text>
</svg>
