<svg xmlns="http://www.w3.org/2000/svg" viewBox="0 0 1200 800" role="img" aria-label="Automation illustration">
  <defs>
    <linearGradient id="bg" x1="0" y1="0" x2="1" y2="1">
      <stop offset="0%" stop-color="#0b1220"/>
      <stop offset="100%" stop-color="#0f766e"/>
    </linearGradient>
    <linearGradient id="line" x1="0" y1="0" x2="1" y2="0">
      <stop offset="0%" stop-color="#34d399"/>
      <stop offset="100%" stop-color="#22d3ee"/>
    </linearGradient>
  </defs>
  <rect width="1200" height="800" fill="url(#bg)" rx="36"/>
  <g fill="#0f172a" stroke="#334155" stroke-width="3">
    <rect x="135" y="180" width="220" height="120" rx="22"/>
    <rect x="490" y="120" width="220" height="120" rx="22"/>
    <rect x="850" y="180" width="220" height="120" rx="22"/>
    <rect x="490" y="420" width="220" height="120" rx="22"/>
  </g>
  <g stroke="url(#line)" stroke-width="10" stroke-linecap="round" fill="none">
    <path d="M355 240h135"/>
    <path d="M710 180h140"/>
    <path d="M600 240v180"/>
    <path d="M960 300v70c0 28-22 50-50 50H710"/>
    <path d="M245 300v70c0 28 22 50 50 50h195"/>
  </g>
  <g fill="#ecfeff">
    <circle cx="355" cy="240" r="10"/><circle cx="490" cy="240" r="10"/><circle cx="710" cy="180" r="10"/><circle cx="850" cy="180" r="10"/>
    <circle cx="600" cy="240" r="10"/><circle cx="600" cy="420" r="10"/><circle cx="960" cy="300" r="10"/><circle cx="710" cy="420" r="10"/>
    <circle cx="245" cy="300" r="10"/><circle cx="490" cy="420" r="10"/>
  </g>
  <text x="110" y="710" fill="#e2e8f0" font-size="56" font-family="Arial, Helvetica, sans-serif" font-weight="700">Workflow Automation</text>
  <text x="110" y="756" fill="#99f6e4" font-size="28" font-family="Arial, Helvetica, sans-serif">Modern tools such as N8N, Power Apps and Power Automate</text>
</svg>
